<svg xmlns="http://www.w3.org/2000/svg" xmlns:xlink="http://www.w3.org/1999/xlink" viewBox="0 0 573.4 267.5">
  <defs>
    <style>
      .cls-1, .cls-2, .cls-3 {
        fill-rule: evenodd;
      }

      .cls-1 {
        fill: url(#Degradado_sin_nombre_4);
      }

      .cls-2 {
        fill: url(#Degradado_sin_nombre_6);
      }

      .cls-3 {
        fill: #fff;
      }

      .cls-4 {
        fill: #747d80;
      }
    </style>
    <linearGradient id="Degradado_sin_nombre_4" data-name="Degradado sin nombre 4" x1="472.53" y1="57.66" x2="500.47" y2="7.86" gradientUnits="userSpaceOnUse">
      <stop offset="0" stop-color="#ee9f29"/>
      <stop offset="0.59" stop-color="#f4c725"/>
      <stop offset="1" stop-color="#fff"/>
    </linearGradient>
    <radialGradient id="Degradado_sin_nombre_6" data-name="Degradado sin nombre 6" cx="471.89" cy="75.6" r="138.95" gradientUnits="userSpaceOnUse">
      <stop offset="0" stop-color="#ce1c81"/>
      <stop offset="0.17" stop-color="#b22281"/>
      <stop offset="0.54" stop-color="#6a3180"/>
      <stop offset="1" stop-color="#084580"/>
    </radialGradient>
  </defs>
  <g id="Capa_2" data-name="Capa 2">
    <g id="Capa_1-2" data-name="Capa 1">
      <g>
        <path class="cls-1" d="M483.6,30.3V31a2.7,2.7,0,0,0,2.9,2.3h.4a3.2,3.2,0,0,0,2.6-3.4v-.5c0-1-1.5-2.1-2.5-2l-1.1.2c-1,.2-2.4,1.8-2.3,2.8Zm14,52.7a2.4,2.4,0,0,0,2.4,1.9h1.1a3.2,3.2,0,0,0,2.5-3V81a2.1,2.1,0,0,0-.7-1.5c-1-.8-1.6-.7-2.8-.5s-2.5,2.4-2.4,4ZM479.9,31.7a2.8,2.8,0,1,1-.3-5.6c3.7-.3,4.2,5.6.3,5.6Zm28.9,10.6c.5,3.1,5.5,2.1,5.7-.8a2.8,2.8,0,0,0-1-2.5,3.4,3.4,0,0,0-3.8.5,4.5,4.5,0,0,0-.9,2.8ZM447.6,60.5v.4a2.5,2.5,0,0,0,2.3,2.2c2,0,3.5-1.3,3.3-3.8s-2-2-3.1-1.8a3.1,3.1,0,0,0-2.5,3Zm61.9-8.7c-3.3-1.1-6.1,3.1-3.9,5.1s8.1-3.6,3.9-5.1Zm-6-18.5v.8c0,1,1.5,2.1,2.5,2h.8a3.7,3.7,0,0,0,2.3-2.7v-.7a2.3,2.3,0,0,0-2.7-2.2h-.6a3.4,3.4,0,0,0-2.4,2.8Zm6.3,30c-.1-1.4.6-3.3,2.3-3.6s3.9.9,3.3,2.8-5.5,3.9-5.6.8ZM454.5,49.1a3.1,3.1,0,0,0,2.4-3.4,2.4,2.4,0,0,0-3.2-2.1,3,3,0,0,0-2.3,3.4,2.4,2.4,0,0,0,3.1,2.1Zm.1,22.4c-2.6-1.3-4-4.6.6-7.1-1.5-1.1-2.2-5.4,2.1-7v-.7c-.7-.1-1.3-1.2-1.3-1.6v-.3a4.4,4.4,0,0,1,2.5-4.5,4.1,4.1,0,0,1,3.5-6.5c-.9-.2-2.4-1.6-2-4a3.5,3.5,0,0,1,3.6-2.3c1.4.2,2.6,1.2,2.5,3.4.8-1.5,2-3.1,4-2.7-2.1-1.2-2.8-5.5.8-6.1s4.5,5.4.3,6.2a2.2,2.2,0,0,1,2,2.7c1.3-1.8,2.1-2.2,3.9-1.9a3.3,3.3,0,0,1-1.4-5c1.8-2.9,5.8-1.5,6,1.9,1.4-3.4,6.9-2.4,6.4,1.6a3.6,3.6,0,0,1,5.8-1.8c1.8,1.6.1,5.6-2.7,5.4,1.6.5,2,2.3,2.1,2.3a2.4,2.4,0,0,1,3-1.5,2.2,2.2,0,0,1-1.5-1.7,3.6,3.6,0,0,1,3-4.1,4.1,4.1,0,0,1,2.3.4c2.8,2.5,0,6.3-2.2,5.8a3.4,3.4,0,0,1,1.7,3.9,3.2,3.2,0,0,1,2.7-2.4c4.5-.7,4.9,5.1.8,6-1.8.4-3.6-.8-3.6-3.5a4.3,4.3,0,0,1-2.6,2.9c1.1.6,1.4,1.1,1.3,3.1,2-4,8.4.4,5.5,3.4a4.5,4.5,0,0,1-2.4,1.6,4,4,0,0,1,1.6,3.4c.9-2.8,6-3.2,6.2.2a3.7,3.7,0,0,1-3.7,3.9c-2.4,0-2.8-2-2.6-3.9a5.5,5.5,0,0,1-3.1,3.3c1.6.7,1.7,2.2,1.4,3.6,1-2.4,2.4-2.4,3.6-2.3,3.2.2,3.2,2.6,1.8,4.8a2.6,2.6,0,0,1-2,1.2c-1.6.3-3.5-.8-3.4-3.5-.6,2.2-1.9,2.7-3.6,3,1.6,1.5,1.3,2.1,1.3,3.3a3.4,3.4,0,0,1,3.6-2.4,3,3,0,0,1,2.9,3.2c-.1,2.2-2,3.1-3.8,2.8a3.1,3.1,0,0,1-2.7-3.3c-.2,1.1-.4,2.6-3.1,3.5.7.4,2.2,1.6,1,4.5S494,85,494,84.8s.8.6.9,2.1v.3a3.6,3.6,0,0,1-3.1,3.6h-.4a3.8,3.8,0,0,1-2.1-.7,2.3,2.3,0,0,1-1-1.8c-.6,2.4-2.7,1.9-3.2,2.2,2.1,1.2,1.8,4,.2,5.5s-1.5.9-2.9,1.1c1.7.6,1.6,1.6,1.7,3.2.2,3.3-5.5,3.9-6.3-.2a3.6,3.6,0,0,1-3.1,2.3,2.7,2.7,0,0,1-2.9-2.3c-.1-2.8,1.5-3.5,4-4.1-.1-.1-3.1-.4-3.7-2.4-.5,1.1-1.5,1.4-2.8,1.6,4.3,1.1.7,7.5-3.1,5.6s-.5-5.6,2.1-5.7a3.7,3.7,0,0,1-2.3-2.5c-.4,1.4-5.9,2.9-6.3-1.9-.5,2.3-5.3,2.4-5.8-.7s1.3-3,3.4-3.8c-1.9,0-3.4-.7-3.6-3-.1.6-.5.7-1.2.8h-.7A2.4,2.4,0,0,1,449,82v-.8a3.4,3.4,0,0,1,2.2-2.9h.7c0-1-1.5-.8-1.6-2.8h0c-.1-2.8,2.2-3.5,4.3-3.8Zm43.9,20.2c3.4-.8,4.2-6.4-.2-5.6s-3.4,6.4.2,5.6ZM517,55.3c.2,4.6-6.3,4.8-5.6.6a2.9,2.9,0,0,1,2.1-2.4c1.3-.2,3.1.1,3.5,1.8ZM467.4,33.4c0-1.4-1.1-2.6-3.4-2.3s-2.2,1.8-2.2,3.2c.2,4.1,5.7,2.3,5.6-.9ZM446.1,66.6c-.2-3.1,5.5-3.9,5.6-.7v.4c.2,3.3-5.5,4.6-5.6.3Zm62.5,12.5c2.2-.1,3.2-1.5,3.1-3.7s-3.8-2.1-4.8-.8-1.2,4.3,1.7,4.5Zm-23.5,22.8a2.4,2.4,0,0,0,2.9,2.3,3.1,3.1,0,0,0,2.8-2.9h0a2.5,2.5,0,0,0-3-2.4,3,3,0,0,0-2.7,3.1ZM507,86a2.9,2.9,0,0,0,2.5-3.1,2.2,2.2,0,0,0-2.8-2.2,3,3,0,0,0-2.6,3A2.3,2.3,0,0,0,507,86ZM470.1,28.6a2.7,2.7,0,0,0,2.9,2.3c1.2-.2,2.7-1.5,2.7-2.5V27.3c0-1.1-1.5-2-2.8-1.8a3.6,3.6,0,0,0-2.7,3.1ZM497,98.4a2.9,2.9,0,0,0,2.5-3.1,2.3,2.3,0,0,0-2.7-2.2,3.3,3.3,0,0,0-2.5,3.2c-.1,1.3.7,2.4,2.7,2.1Zm-45.3-2a2.7,2.7,0,0,0,2.7,2.3,3,3,0,0,0,2.6-1.9c.6-1.7-.3-3.9-2.5-3.6a3.3,3.3,0,0,0-2.8,3.2Zm-1.8-5.6a2.8,2.8,0,0,0,2.5-3h0a2.3,2.3,0,0,0-2.8-2.2,2.8,2.8,0,0,0-2.2,3.8,2.1,2.1,0,0,0,2.5,1.5Zm64.8-39.4c-1.9-1-1.1-3.7.5-4.5s4.4.5,3.6,2.8a2.7,2.7,0,0,1-4.1,1.7ZM453.6,39.9h0a2.4,2.4,0,0,0,2.6,2,2.7,2.7,0,0,0,2.6-2.9v-.8c-.1-1.2-1.7-1.7-3-1.5h-.2a3.3,3.3,0,0,0-2,3.1Zm57.1-5h0a2,2,0,0,0,2.4,2.2h.4a3.7,3.7,0,0,0,2.4-2.5V33.6c0-.9-1.5-1.8-2.7-1.7a2.7,2.7,0,0,0-2.4,3Zm-47.4,70.7c.1,3.1,5.5,2.2,5.3-.9a2.3,2.3,0,0,0-2.7-2.4,3,3,0,0,0-2.6,3.3Zm34.2-81.2a2,2,0,0,0-2.6-2.2,3.2,3.2,0,0,0-2.5,3,2,2,0,0,0,2.5,2.2,3,3,0,0,0,2.6-3Zm1.5,1.5a2.7,2.7,0,0,0,2.8,2.3,3.3,3.3,0,0,0,2.5-2.6v-.9a2,2,0,0,0-2.4-1.8,3.1,3.1,0,0,0-2.8,3Zm-28.7,80.5v.6a2,2,0,0,0,2.2,1.9h.6a3.2,3.2,0,0,0,2.4-2.8h0a2.5,2.5,0,0,0-2.8-2.3,2.8,2.8,0,0,0-2.4,2.8Zm21.2-9.6c2.2-1.7,1.5-5.7-2.1-5.2a2.5,2.5,0,0,0-2.2,2.3c-.5,2.7,1.9,4.7,4.3,2.9Zm23.8-53.6c.2,1.6,1.8,2,3.2,1.5a2.8,2.8,0,0,0,2-2.8,2.4,2.4,0,0,0-2.7-2.2c-1.9.3-2.5,1.9-2.5,3.5ZM487.7,26l1.1-.2c2.6-.4,2.4-5.5-.6-5s-3.4,5.7-.5,5.2ZM444.2,73.4v1a2.2,2.2,0,0,0,2,1.7l1.1-.2a3.2,3.2,0,0,0,1.9-2.4v-.9c0-.6-1.4-1.7-2-1.6h-.8a2.8,2.8,0,0,0-2.2,2.3Zm58.5,16.1v1a2.3,2.3,0,0,0,2.1,1.7l1.1-.2a2.9,2.9,0,0,0,1.8-2.3V89a1.8,1.8,0,0,0-2.2-1.8h-.8c-1,.2-2.1,1.5-2,2.2ZM477,106.8c.1,2,1.4,2.8,2.7,2.7a2.4,2.4,0,0,0,2.4-2.7,2.2,2.2,0,0,0-2.6-2.2c-1.3.2-2.5,1-2.5,2.2Zm31.7-77.7c2.7-.6,3.5-5.3-.2-4.7s-2.8,5.4.2,4.7Zm-27-4.1c-2.7.4-2.9-4.2-.4-4.6l1.1-.2c2.6-.4,2.5,4.3,0,4.7Zm37.8,41.1a2.3,2.3,0,0,0,2.2-2.6,2.1,2.1,0,0,0-2.4-2,2.7,2.7,0,0,0-2.2,2.7c-.1,1.1.7,2.2,2.4,1.9Zm-62.1,38v1a2.1,2.1,0,0,0,1.9,1.4l1-.2a2.6,2.6,0,0,0,1.8-2.2v-.9c0-.6-1.3-1.6-1.9-1.5h-.9a2.8,2.8,0,0,0-1.9,2.3Zm39.7-2.3c0-1.2-.9-2.2-2.9-1.9a2.5,2.5,0,0,0-1.8,2.6c0,3.5,4.6,2,4.7-.7Zm22.5-31.4c.2-3.3-4.4-2.1-4.6.7s4.4,2.1,4.6-.7ZM464.4,26.5v1.1a2.3,2.3,0,0,0,2.1,1.6h.9c.4-.1,1.8-1.6,1.7-2.1v-.9a1.9,1.9,0,0,0-1.9-1.7l-1.1.2c-.7.1-1.8,1.4-1.7,1.9Zm-8.9,7.3a2.1,2.1,0,0,0,2.1,1.7l.9-.2c1.3-.2,1.7-2,1.7-3a2.1,2.1,0,0,0-2.1-1.6l-1.1.2c-1.3.2-1.6,2-1.5,2.9Zm63,23c.2,3.7,5.6,3,4.7-.9a2.1,2.1,0,0,0-2.8-1.5,2.7,2.7,0,0,0-1.9,2.4ZM490.4,31.3v.5a2.6,2.6,0,0,0,2.9,2.2h.4a3.8,3.8,0,0,0,2.7-2.7V30.1a2.4,2.4,0,0,0-2.5-2h-1.1a3.3,3.3,0,0,0-2.3,3.1Zm29.7,6.3a2.6,2.6,0,0,0,2.2-2.8,1.9,1.9,0,0,0-2.4-1.8,3.1,3.1,0,0,0-2.3,2.7c0,1.2.7,2.2,2.5,1.9Zm-4.3,41.8c3.2-.1,2.8-4.7-.2-4.6s-2.8,4.7.2,4.6Zm-2.9-52c.1,1.9,1.3,2.7,2.5,2.5a3,3,0,0,0,2.3-3.2c-.1-1.2-1.3-1.6-2.5-1.4s-2.3,1-2.3,2.1Zm-6.4,21.1c-.1-1.4.6-3.2,2.3-3.5s3.6.7,3.7,3.1-5.5,4-6,.4Zm-5.8,48.2a2.2,2.2,0,0,0,2.5,2.2,2.3,2.3,0,0,0,2.3-2.2,2.4,2.4,0,0,0-2.5-2.4,2.3,2.3,0,0,0-2.3,2.4Zm-16.5,11.6c0,1.8,1.2,2.5,2.4,2.3a2.9,2.9,0,0,0,2.1-3c0-1.2-1.2-1.6-2.3-1.5s-2.3.9-2.2,2.2Zm39.1-56.1a2.2,2.2,0,0,0,2.1-2.4,2.3,2.3,0,0,0-2.3-2.2,2.1,2.1,0,0,0-2.2,2.4,2.1,2.1,0,0,0,2.4,2.2Zm-7.4,31.6a1.9,1.9,0,0,0-2.3-1.9,2.3,2.3,0,0,0-2.2,2.6,1.7,1.7,0,0,0,2.4,1.8,2.6,2.6,0,0,0,2.1-2.5Zm-73.1-3.1c.1,1,1.3,2.2,2,2.1h.9a2.8,2.8,0,0,0,1.7-2.3v-.7c0-.8-1-1.7-1.6-1.6l-1.1.2a2.7,2.7,0,0,0-1.9,2.4Zm79.6-36.8c.1,1.4,1.2,2.1,2.7,1.8s1.9-1.5,1.9-2.5a1.9,1.9,0,0,0-2.1-1.8,2.7,2.7,0,0,0-2.5,2.5ZM472.9,21.3c.1,1.9,1.1,2.3,2.7,2.1s2.3-3.2.9-4.1-3.7.4-3.6,2Zm-26.8,74c.1,1,1,2.1,2.1,1.9h.1a2.7,2.7,0,0,0,2.2-2.6,2,2,0,0,0-2-1.8,2.8,2.8,0,0,0-2.4,2.5Zm-.4-49.5c.1.9,1.1,2.1,2,2l.7-.2a3.1,3.1,0,0,0,1.8-2.3,2.2,2.2,0,0,0-2.1-2h-.5a2.7,2.7,0,0,0-1.9,2.4Zm55.3-27a1.9,1.9,0,0,0,2.3,1.9,2.5,2.5,0,0,0,2.1-2.6c0-1.4-1.1-1.8-2.2-1.6a2.5,2.5,0,0,0-2.2,2.3Zm20.7,12.4c2.7-.4,2.8-4.8-.3-4.3s-2.5,4.7.3,4.3ZM508,20.1a2.1,2.1,0,0,0,2.1,2.1,3,3,0,0,0,2.2-2.7,2,2,0,0,0-2.4-1.7,2.7,2.7,0,0,0-1.9,2.3ZM510,91v.6c0,1,1.3,1.7,2.2,1.5a2.6,2.6,0,0,0,2-2.3,2.2,2.2,0,0,0-2.2-2c-.9.1-2.1,1.3-2,2.2ZM495,17.7c.1,1.7,1.2,2.3,2.2,2.1a2.5,2.5,0,0,0,2.1-2.4,1.8,1.8,0,0,0-2.3-1.7c-1,.1-2.1.9-2,2ZM443.6,52c0,1.1.9,2.2,1.9,2s2.4-1,2.4-1.9h0c-.1-1.5-.9-2.5-2.3-2.2a2.5,2.5,0,0,0-2,2.2Zm3.8-13.1a1.9,1.9,0,0,0,2.1,1.8,2.5,2.5,0,0,0,2-2.2c0-1-.8-2.1-1.9-1.9h-.1a2.4,2.4,0,0,0-2.1,2.3Zm10.5-12.1a2,2,0,0,0,2.1,1.3,2.3,2.3,0,0,0,2-2.4,1.7,1.7,0,0,0-2-1.6c-1.5.2-2.1,1.2-2.1,2.7Zm41.6,76.9a1.7,1.7,0,0,0,2,1.8,2.3,2.3,0,0,0,2.1-2.1c-.1-1.1-.9-2.1-1.9-2s-2.3,1.3-2.2,2.3ZM442.2,58.6v1.1c0,.7,1.3,1.3,2.2,1.1h.2a2.4,2.4,0,0,0,1.7-2.2c0-.9-.9-2-1.8-1.9s-2.4,1-2.3,1.9Zm8.7,44.4c.1,1.3,1,1.9,2.4,1.7a2.3,2.3,0,0,0,1.7-2.2,2,2,0,0,0-2.2-1.8,2.6,2.6,0,0,0-1.9,2.3Zm40.2,6.4a1.9,1.9,0,0,0,2.4,1.6,2.3,2.3,0,0,0,1.7-2.2,2,2,0,0,0-2-1.8,2.8,2.8,0,0,0-2.1,2.4Zm33.6-72.5a2.1,2.1,0,0,0,2.2,1.8c.9-.2,2-1.3,2-2s-.8-2.3-2-2.1a2.5,2.5,0,0,0-2.2,2.3ZM488.2,16.7a2,2,0,0,0,2.1,1.8,2.7,2.7,0,0,0,2-2.4,1.9,1.9,0,0,0-2.1-1.7,2.3,2.3,0,0,0-2,2.3Zm39.3,47.6c-.1-1.4-1-1.9-2-1.7a2.4,2.4,0,0,0-1.9,2.3,1.6,1.6,0,0,0,2,1.7,2.1,2.1,0,0,0,1.9-2.3ZM514.8,20.9a2,2,0,0,0,2.1,1.8,2.4,2.4,0,0,0,2-2.3,1.8,1.8,0,0,0-2.2-1.7,2.5,2.5,0,0,0-1.9,2.2Zm-45.6,92a1.7,1.7,0,0,0,.7,1.3,2.2,2.2,0,0,0,1.3.4,2.8,2.8,0,0,0,1.5-.8,2.4,2.4,0,0,0,.6-1.5c-.1-1.4-1.1-1.8-2.2-1.7a2.3,2.3,0,0,0-1.9,2.3Zm-2.9-92.1c0,.8,1,1.8,1.6,1.7l1-.2c.4,0,1.4-1.2,1.4-1.5V19.7c0-.5-.9-1.2-1.6-1.1h-.7a2.2,2.2,0,0,0-1.6,2.1Zm57.9,52.7a2.1,2.1,0,0,0,1.8-2.3,1.6,1.6,0,0,0-2-1.7,2.2,2.2,0,0,0-1.8,2.3,1.6,1.6,0,0,0,2,1.7Zm3.6-13.4a2.2,2.2,0,0,0,1.8-2.2c.1-.9-.5-1.8-1.9-1.5a1.9,1.9,0,0,0-1.8,2.1,1.6,1.6,0,0,0,1.9,1.6Zm-5.7,20.3a1.6,1.6,0,0,0,1.7-1.8,2,2,0,0,0-1.9-2,1.7,1.7,0,0,0-1.8,1.9,2.1,2.1,0,0,0,2,1.9Zm7.3-27.2a1.7,1.7,0,0,0,1.8-1.9,2,2,0,0,0-1.9-1.9,1.7,1.7,0,0,0-1.8,1.9,2,2,0,0,0,1.9,1.9ZM508.1,97.8c.1,1.5,1,2.1,1.9,2s1.9-.7,1.8-1.6a1.9,1.9,0,0,0-1.9-2,1.7,1.7,0,0,0-1.8,1.6Zm-31.9,16.9c0,1.1,1.6,1.2,2.4.8a1.8,1.8,0,0,0,.7-.5c.8-1.1.5-3.1-1.7-2.8a2.2,2.2,0,0,0-1.4,2.5ZM451.7,33.4c2-.3,2.4-4-.2-3.6s-1.9,3.9.2,3.6ZM441.3,87.3c.2,1.7,1.3,2.1,2.3,1.7a2.2,2.2,0,0,0,1.2-2.4c0-1.8-3.5-1.4-3.5.7Zm42.2-69.8a2.3,2.3,0,0,0,1.7-2.1c.1-.9-.4-1.7-1.8-1.4a1.9,1.9,0,0,0-1.7,2.1,1.6,1.6,0,0,0,1.8,1.4Zm44.9,13.9a1.9,1.9,0,0,0,1.6-2c.1-.9-.4-1.6-1.8-1.4a1.8,1.8,0,0,0-1.6,2,1.4,1.4,0,0,0,1.8,1.4Zm-8,55.7c2-.5,2.6-3.9-.1-3.4s-1.9,3.8.1,3.4Zm9.3-42.5a1.4,1.4,0,0,0,1.9,1.5,2,2,0,0,0,1.7-2,1.5,1.5,0,0,0-1.9-1.5,1.8,1.8,0,0,0-1.7,2Zm-6-20.8c1.3,0,1.8-.8,1.7-1.7a1.9,1.9,0,0,0-1.8-1.8,1.5,1.5,0,0,0-1.7,1.6,2,2,0,0,0,1.8,1.9Zm-41.2,90.9c0,1.1.5,1.5,1.3,1.6s2.7-.9,2-2.4a1.6,1.6,0,0,0-2.1-.9,1.6,1.6,0,0,0-1.2,1.7Zm-19.8-3.2v1.1a1.4,1.4,0,0,0,1.3,1l1-.2c.5,0,1.2-.9,1.2-1.4v-.7a1.5,1.5,0,0,0-1.6-1.3l-.8.2c-.3,0-1.2,1-1.1,1.3ZM458.4,98c.4,3.6,5.9,2.2,5.9-1.2s-1.7-2.8-3.6-2.5-2.4,2.2-2.3,3.7Zm59.9-4.5c2.4-.3,2-3.8-.2-3.4s-2.3,3.6.2,3.4Zm-20.7,17.3a1.8,1.8,0,0,0,2.1,1.4h.1c.6,0,1.4-1.2,1.3-1.8a2,2,0,0,0-1.4-1.5c-1,.2-2.1.8-2.1,2Zm33.7-73.4a1.8,1.8,0,0,0,1.8,1.7,1.7,1.7,0,0,0,1.6-1.8,1.4,1.4,0,0,0-1.7-1.5,1.7,1.7,0,0,0-1.7,1.6Zm-53.9,1.7c1.6.5,2.2.6,2.2,2.5,1.1-1.5,1.9-2.2,3.8-1.8-1.2-.6-2.4-1.2-1.8-3.5-.4,2.2-2.1,3.1-4.2,2.8Zm26.4-27v.5a1.6,1.6,0,0,0,1.8,1.2,1.8,1.8,0,0,0,1.4-2v-.2c0-.5-1.1-1.2-1.6-1.1s-1.6,1.1-1.6,1.6Zm2.9,92c.1,1.3.9,1.8,1.8,1.7a1.7,1.7,0,0,0,1.6-1.8,1.6,1.6,0,0,0-1.8-1.4,1.6,1.6,0,0,0-1.6,1.5ZM476.6,16a1.9,1.9,0,0,0,1.6-1.9c0-.9-.5-1.6-1.6-1.4a1.8,1.8,0,0,0-1.5,1.9,1.3,1.3,0,0,0,1.5,1.4Zm34-2.8a1.5,1.5,0,0,0,1.6,1.4,2.1,2.1,0,0,0,1.6-2.1v-.2c0-.4-.9-1-1.4-.9a1.9,1.9,0,0,0-1.8,1.8ZM452,56.1h1.1c3-.5,3.1-6.3-.1-5.8l-1.1.2c-2.9.5-3.1,6.2.1,5.7Zm7.9-36.7a1.5,1.5,0,0,0,1.6,1.4,2,2,0,0,0,1.6-1.8c0-.6-.7-1.5-1.3-1.4h-.1a2,2,0,0,0-1.8,1.8Zm57.5-4.8a1.8,1.8,0,0,0,1.8,1.3,2.1,2.1,0,0,0,1.4-1.9,1.4,1.4,0,0,0-1.4-1.3,1.9,1.9,0,0,0-1.8,1.9ZM451.5,24.8c.2,2.5,3.3,1.5,3.3-.4a1.7,1.7,0,0,0-1.6-1.2,2,2,0,0,0-1.7,1.6Zm37.9,91.4a1.5,1.5,0,0,0,1.6,1.4,1.6,1.6,0,0,0,1.5-1.4c.2-.8-.4-1.8-1.3-1.6s-1.8.8-1.8,1.6Zm41.5-50.1a1.4,1.4,0,0,0,1.6,1.4,1.6,1.6,0,0,0,1.5-1.6,1.4,1.4,0,0,0-1.6-1.5,1.7,1.7,0,0,0-1.5,1.7ZM529,22.8c.1,2.2,3.1,1.6,3.1-.4s-3.2-1.4-3.1.4ZM497.1,10.9c.1.9.6,1.6,1.5,1.4h.4a2.2,2.2,0,0,0,1.2-1.7,1.6,1.6,0,0,0-1.7-1.3,1.9,1.9,0,0,0-1.4,1.6ZM456,110.8c.1,1.8,3.2,1.6,3.1-.5a1.4,1.4,0,0,0-1.5-1.3h-.1a2,2,0,0,0-1.5,1.8ZM529.4,73v.2c.1.9.8,1.2,1.8,1a1.7,1.7,0,0,0,1.3-1.5,1.4,1.4,0,0,0-1.5-1.3h-.3a1.8,1.8,0,0,0-1.3,1.6Zm3.7-13.9v.2c0,.9.8,1.2,1.7,1.1a1.7,1.7,0,0,0,1.3-1.6c0-2-3.1-1.5-3,.3Zm1.5-6.7a1.3,1.3,0,0,0,1.5,1.1h.1c.6-.1,1.4-.7,1.3-1.3h0c0-1-.4-1.6-1.4-1.5h-.2a1.6,1.6,0,0,0-1.3,1.7Zm-7.3,27.1a1.2,1.2,0,0,0,1.4,1.2c.9-.2,1.5-.8,1.4-1.6s-.5-1.4-1.2-1.3-1.7.7-1.6,1.7ZM515.2,99a1.3,1.3,0,0,0,1.6,1.1c.7-.1,1.4-.7,1.3-1.3h0c0-.9-.5-1.6-1.3-1.5a1.8,1.8,0,0,0-1.6,1.8Zm20.1-66.5a1.7,1.7,0,0,0,1.3-1.6c-.1-1-.5-1.4-1.6-1.2s-1.6,3.1.3,2.8ZM525.2,16.6a1.8,1.8,0,0,0,1.4-1.7,1.1,1.1,0,0,0-1.4-1.2,1.6,1.6,0,0,0-1.3,1.7,1.1,1.1,0,0,0,1.3,1.2Zm-80.5,85.7c.1.7.7,1.3,1.3,1.2s1.7-.9,1.6-1.5a1.2,1.2,0,0,0-1.4-1.3c-1,.2-1.5.6-1.5,1.6ZM469,13.7c0,.6.7,1.3,1.1,1.2h.8a1.4,1.4,0,0,0,.9-1.1v-.6a1.1,1.1,0,0,0-1.3-1,1.8,1.8,0,0,0-1.5,1.6Zm21.5-3.4c0,.6.4,1.3,1,1.2h.7a1.4,1.4,0,0,0,.9-1.1V9.4c0-.4-.7-.8-1.3-.7h-.1c-.9.1-1.2.7-1.2,1.5ZM441.6,95.1a1.6,1.6,0,0,0,1.2-1.5c0-.6-.4-1.3-1-1.3h-.4a1.5,1.5,0,0,0-1.2,1.5,1.1,1.1,0,0,0,1.4,1.2Zm97.1-48.3a1.2,1.2,0,0,0,.7-1.7,1.3,1.3,0,0,0-1.7-.6,1.5,1.5,0,0,0-.7,1.8c.2.6.8,1,1.7.5ZM525.9,86.4a.9.9,0,0,0,1,1,1.5,1.5,0,0,0,1.6-1.4c-.1-.8-.5-1.3-1.3-1.2s-1.4.7-1.3,1.6Zm-21,25.1a1,1,0,0,0,1.3,1c.7-.1,1.3-.5,1.3-1.1s-.7-1.4-1.4-1.3a1.2,1.2,0,0,0-1.2,1.4ZM439.8,44.3c.1,1.7,2.5,1.2,2.5-.2s-.5-1.1-1.3-1a1.4,1.4,0,0,0-1.2,1.2Zm73.6,61.6c0,.8.6,1,1.3.9a1.2,1.2,0,0,0,1.1-1.3,1,1,0,0,0-1.2-1,1.3,1.3,0,0,0-1.2,1.4Zm-72-68.3c0,.3.5,1,.9.9h.6a1.5,1.5,0,0,0,.9-1c0-.7-.2-1.4-.8-1.3h-.8a1.3,1.3,0,0,0-.8,1.4Zm94.1-13.3a1.1,1.1,0,0,0,1.3,1,1.4,1.4,0,0,0,1.2-1.2c-.1-1.6-2.6-1.3-2.5.2Zm-4.6-7.7a1,1,0,0,0,1.2,1,1.4,1.4,0,0,0,1.2-1.3c0-.7-.5-1.1-1.3-1s-1.2.4-1.1,1.3Zm7.7,22.3c.1.6.5,1.1,1,1.1s1.5-.5,1.5-1.3a1,1,0,0,0-1.3-1,1.4,1.4,0,0,0-1.2,1.2Zm-41.9,77.8v.3c0,.5.3,1,.8.9h.8c.3,0,.7-.5.7-.8v-.3c-.1-.7-.4-1.2-1.1-1.1h-.4c-.3,0-.8.7-.8,1Zm28.2-22.4c1.7,0,1.8-2.6.1-2.3s-1.7,2.3-.1,2.3ZM454.2,18.5v.3c0,.4.7.8,1.1.7a1.3,1.3,0,0,0,1.2-1.4h0a1.2,1.2,0,0,0-1-.8h-.3c-.7.1-1.1.5-1,1.2ZM444.9,32a1.2,1.2,0,0,0,1-1.3.9.9,0,0,0-1.1-.9,1.4,1.4,0,0,0-1.1,1.3c0,.6.3,1.1,1.2.9ZM484.5,8.7h0a1,1,0,0,0,1.1,1.1,1.2,1.2,0,0,0,1.1-1.4V8.3c0-.3-.6-.8-.9-.7h-.5c-.3,0-.9.6-.8,1ZM437.8,51.4a1.2,1.2,0,0,0,1.2.9h.1a1.9,1.9,0,0,0,1-1.2v-.2c0-.3-.7-.9-1.1-.9a1.5,1.5,0,0,0-1.2,1.4ZM519.6,7.7c0,.3.6.8.9.7s.7-.5,1.2-.8V7.2a1.1,1.1,0,0,0-1.1-.9h-.2a1.3,1.3,0,0,0-.8,1.4Zm16.5,66.1a1,1,0,0,0,1.1,1,2.3,2.3,0,0,0,1-1.2v-.2a1,1,0,0,0-1-.7h-.3c-.3.1-.9.7-.8,1.1Zm4.8-41.9a.9.9,0,0,0,1.1.9,1.2,1.2,0,0,0,1.1-1.1.9.9,0,0,0-1.1-.9,1.2,1.2,0,0,0-1.1,1.1Zm-1.1,28.6c0,1.4,2.1,1,2.1-.3s-2.2-.9-2.1.3Zm-.5,7.1a1.2,1.2,0,0,0,1-1.1c0-.5-.3-.9-1.1-.8a1.2,1.2,0,0,0-1,1.2c0,.5.4.9,1.1.7ZM449.8,110h0c.1.4.5.7.8.6h.2a1.1,1.1,0,0,0,1-1.2c0-.4-.6-.8-.9-.8h-.2c-.5,0-.9.6-.9,1.2Zm25.1,10.9a.9.9,0,0,0,.8,1h.5c.5-.1.7-.7.7-1.2a1,1,0,0,0-1-.7h-.1c-.4,0-.9.7-.9,1Zm6.8.8c0,.5.3,1,.8.9h.5a1,1,0,0,0,.7-1.1,1,1,0,0,0-1-.8h-.1a1.4,1.4,0,0,0-.9,1.1Zm-19-109.2a.9.9,0,0,0,.9.7h.2c.3-.1.9-.7.8-1.1s-.4-.9-1.1-.8h-.1a1,1,0,0,0-.7,1.2Zm79.2,41v.2c0,.4.7.8,1.1.7a1.2,1.2,0,0,0,.9-1.1c0-.7-.4-1-1.1-.8a1.2,1.2,0,0,0-.9,1Zm-19.4,46.6h0c0,1.2,2,.9,2-.4s-2.1-.9-2,.3ZM435.9,86c0,.7.4,1,1.1.9s.9-.7.9-1v-.2c-.1-.3-.6-.8-1-.7h-.2c-.3,0-.8.8-.8,1ZM512.7,6.2h.1c0,.6.4.3.6.8h.5c.3,0,.9-.6.8-1s-.4-1-1.1-.9a1.9,1.9,0,0,0-.9,1.1ZM477.8,8.1h0c0,.5.6.7,1,.6a1,1,0,0,0,1-.9h0c0-.4-.6-.8-1-.8h-.1a1.4,1.4,0,0,0-.9,1.1Zm-32.4,16v.2c0,.3.4.6.8.6h.1a1.2,1.2,0,0,0,1.1-1.1,1.2,1.2,0,0,0-1-.8h-.2a1.6,1.6,0,0,0-.8,1Zm22.7,95.6c0,.6.5.8,1,.8s1-.4,1-.9a.9.9,0,0,0-1.1-.9.9.9,0,0,0-.9,1Zm66.6-39.2c0,.8.5,1.1.9,1a1.1,1.1,0,0,0,.9-1.2c0-.5-.5-.7-1-.7s-.9.4-.8.9ZM506.1,5.6c0,.3.5.6.8.6s1.1-.5,1-1.1a.9.9,0,0,0-.9-.7h-.2c-.5.1-.7.7-.7,1.2Zm20.4,2.6v.2a.8.8,0,0,0,.8.6h.2c.5-.1.2-.3.9-.6V7.9c0-.3-.6-.8-.9-.7h-.5c-.1.8-.4.5-.4,1Zm17.4,39,.5.2a1,1,0,0,0,.9-1c0-.4-.3-.8-1-.7a1,1,0,0,0-.5.4.7.7,0,0,0,.1,1.1Zm-4.3-30.1c.1-.6-.2-.8-.6-.8s-.9.3-1,.7a.7.7,0,0,0,.6,1,1,1,0,0,0,1-.9Zm-7.1,70.5a.9.9,0,0,0,.9.8,1,1,0,0,0,.8-1c0-.5-.4-.6-.9-.5a.8.8,0,0,0-.8.7Zm-20.3,25.2c0,.5.4.6.8.6s.9-.4.8-.9a.6.6,0,0,0-.8-.6c-.5.1-.9.4-.8.9ZM542.8,25a.6.6,0,0,0,.8.6,1,1,0,0,0,.7-.9c0-.4-.4-.6-.8-.6a.7.7,0,0,0-.7.9ZM504,118.1v.3c0,.4.2.6.6.5h.2c.3,0,.7-.5.7-.9s-.5-.6-.8-.6h-.2c-.3.1-.6.4-.5.7ZM488.8,123v.3c0,.3.2.4.5.3h.8c0-.3.1-.4.1-.8s-.3-.5-.7-.5h-.1c-.4,0-.6.3-.6.7Zm46-113.4c0-.5-.2-.7-.5-.8a.7.7,0,0,0-.8.6.7.7,0,0,0,.5.8c.4,0,.8-.2.8-.6Zm-13.5,97.5a.8.8,0,0,0,.7-.8c0-.4-.2-.7-.7-.6a.8.8,0,0,0-.7.8c.1.4.3.7.7.6ZM500.1,4h0c0,.4.2.6.6.5h.2a.8.8,0,0,0,.5-.7c0-.4-.1-.4-.2-.7h-.6a.5.5,0,0,0-.5.7Zm-61.4,96.7v.2a.6.6,0,0,0,.6.5h.2c.3,0,.4-.1.4-.5v-.3c0-.3-.1-.4-.5-.4h-.3c-.3,0-.4.2-.4.5ZM546,39.7a.7.7,0,0,0,.7.4c.3-.1.6-.3.6-.6s-.4-.8-.7-.7a.9.9,0,0,0-.6.9ZM531.3,93.9c0,.4.1.4.2.7h.4c.4,0,.6-.3.6-.7h0c0-.4-.1-.5-.5-.4h-.3c-.3.1-.4.2-.4.6ZM461.6,119a.6.6,0,0,0,.6.5h.2c.3,0,.5-.1.4-.5v-.3c0-.7-1.2-.4-1.2.4ZM456.2,11.5c0,.4.2.6.6.5h.2c.3-.1.4-.2.4-.5s-.1-.4-.2-.7h-.4a.7.7,0,0,0-.6.7Zm15.3-5v.3c0,.4.1.5.4.4h.2c.3-.1.5-.2.4-.5V6.4c0-.4-.1-.5-.5-.4h-.1c-.4.1-.5.2-.4.5ZM444.7,108.8c.4,0,.5-.2.5-.5v-.2c-.1-.3-.2-.4-.5-.3h-.2c-.6.1-.8,1.2.2,1ZM448,17.2c0,.4.1.4.5.4h.1c.4-.1.5-.2.4-.6h0c0-.4-.1-.4-.4-.4H448v.6Zm45.4-14h0c0,.4.2.5.5.4h.2c.3-.1.4-.2.4-.5V3c0-.3-.1-.4-.5-.4h-.1c-.4,0-.5.2-.5.5Zm54.2,30.1c0,.4.3.5.6.5a.4.4,0,0,0,.4-.5c-.1-.3-.4-.4-.6-.5s-.4.1-.4.5Zm-52.5,90.5h.1c0,.4.1.4.4.4h.2c.3-.1.4-.2.4-.6h0c0-.4-.1-.4-.5-.4h-.1c-.4.1-.5.2-.5.6Zm50.6-105a.7.7,0,0,0,.4-.5c.1-.2-.1-.3-.4-.3a.5.5,0,0,0-.4.5c0,.2.2.3.4.3ZM540,10.3v.5l.9-.2v-.4c0-.4-.2-.5-.5-.4s-.5.2-.4.5ZM434.2,93.1c0,.3.2.4.5.4a.5.5,0,0,0,.4-.5c0-.4-.3-.6-.5-.5s-.4.2-.4.6Zm95.9,8a.3.3,0,0,0,0-.6c-.1-.2-.4-.2-.7,0s-.2.5-.1.7a.8.8,0,0,0,.8-.1Zm17.8-40.4a.6.6,0,0,0-.7.2c-.2.2-.2.5.1.6a.5.5,0,0,0,.7-.2c.2-.2.2-.5-.1-.6Zm-4.4,14.8h.5c.2-.1.4-.2.4-.4s-.1-.4-.5-.4-.4.4-.4.9Zm2.1-7h.5c.2,0,.5-.2.4-.4s-.1-.4-.4-.4-.5.4-.5.9Zm-35.2,50.6c.1.2.2.4.4.4s.4-.2.4-.6v-.4c-.5.1-.8.1-.8.6Zm-54.7-1.6c0,.2.1.4.3.4s.5-.2.5-.5-.3-.4-.8-.4v.5Zm93.6-63.4c0,.4.1.5.5.4a.4.4,0,0,0,.4-.4c0-.3-.1-.4-.5-.3s-.4.1-.4.3ZM436.1,36.9c.8-.1.8-.1.7-.9l-.7.2v.7ZM522.5.7h.6V0h-.6V.7ZM464.8,6.2h.6V5.5c-.5.2-.6.2-.6.7Zm44.5,66c1.6.6,4.1-1.1,4-2.8s-1.5-3-3.4-2.7-3.3,4.5-.6,5.5ZM437.6,29.9h.7v-.6c-.5.1-.6.1-.6.7Zm105,51.6c.2-.2.1-.4,0-.4s-.3-.1-.5.1a.3.3,0,0,0,0,.4c.1.1.3.1.5-.1Zm-22.5,32a.4.4,0,0,0,0-.5c-.1-.1-.3,0-.5.1a.4.4,0,0,0,0,.5c.1.1.3.1.5-.1ZM486.9,2.1h.6c0-.5,0-.5-.6-.5v.6Zm63.2,24.4h.6c-.1-.5-.1-.5-.7-.5v.6ZM484.6,40a2.2,2.2,0,0,1,1.7,2.3c.5-1.2,2.2-1.6,3.5-1.4a3,3,0,0,1-1.9-2.6c-1,1.4-1.6,1.4-3.3,1.7Zm17.3,1c-.2-4.4,5.9-5.5,6-1.4v.3a3.3,3.3,0,0,1-.8,2c-1.2,1.2-3.2,1.8-4.6.6a1.8,1.8,0,0,1-.7-1.5Zm-5.3-8.7v.9c.1,1.2,1.6,2.5,2.6,2.3h.7a3.5,3.5,0,0,0,2.7-3.1v-.8a2.6,2.6,0,0,0-2.5-2h-.8c-1.2.2-2.7,1.9-2.6,2.7ZM422.2,17.1c5.1,6,4.3,5.8,11.8,3.1-6,5.2-5.8,4.4-3.2,11.9-5.1-6.1-4.3-5.9-11.8-3.2,6.1-5.1,5.9-4.3,3.2-11.8ZM411.3,32.7c5,5.1,4.3,5,10.9,2.1-5.2,5-5,4.3-2.1,10.9-5.1-5.2-4.3-5-10.9-2.1,5.1-5.1,5-4.3,2.1-10.9ZM435.1,56c-5.5-5.6-4.7-5.4-11.9-2.3,5.6-5.5,5.5-4.7,2.3-11.8,5.5,5.6,4.7,5.4,11.9,2.3-5.6,5.4-5.5,4.7-2.3,11.8Zm-16.8,4.8c3.5,3.7,3,3.6,7.6,1.5-3.6,3.6-3.5,3-1.5,7.7-3.5-3.6-3-3.5-7.6-1.5,3.6-3.5,3.5-3,1.5-7.7Zm11.9-.2c6.7,6.9,5.7,6.7,14.5,2.8-6.9,6.7-6.7,5.8-2.8,14.6-6.7-6.9-5.8-6.7-14.6-2.9,6.9-6.7,6.7-5.7,2.9-14.5ZM395.6,46c5.9,13.5,6.2,12-4.4,22.3,13.5-5.9,12-6.2,22.3,4.3-5.9-13.4-6.2-11.9,4.3-22.2C404.4,56.3,405.8,56.6,395.6,46Z"/>
        <path class="cls-2" d="M556,209.4h12.4c7.1-.1,5-4.2,3.4-8.8L536.3,90.1a1.7,1.7,0,0,0-3.2,0l-57.3,119h10c5.7-.2,6.4-3.6,8.2-7.5l36-77.1c4.5,14.6,9,29.2,13.4,43.8H517.9c-3.6,0-5,1.8-6,4.7l-2.1,5.9h36.9l9.3,30.4Zm-91.6,4.5c-.5,9.3-15.8,7.6-14.9-.1l16-129.6c1.5-10.6,19.2-11,18.2-.4-6.9,47.6-12.3,82.5-19.3,130.1Zm-33.1-4.7c3.5,0,4.2-2.9,4.2-7,1-35.9,2-77,3.1-112.9-.3-1.4-2.7-1.8-3.5-.5l-54.8,87.7L342.2,87.1a2.4,2.4,0,0,0-1.7-1.1,1.9,1.9,0,0,0-1.9,1.4L310,207.9h8.3c4.9,0,5.6-3,7.6-11.4l15.6-61.8,28.1,66.3,1.4,3.1c3.2,6.1,5,4.2,7.8-.1L419.4,142l-2.1,67.2Zm-65.1,11.2c-31.7,12.1-52.9,11.1-68,2.2-25.9-15.3-29.5-45.4-40.7-69.9-2-4.3-4.8-7.8-10-9.1,10.9.2,19.5.6,27.2-7.3s10.1-18.9,3-27.8-15.9-7.2-26.8-7.2c-4.2,34.2-8.2,65.8-12.3,100-.7,5.5-1.6,7.6-6.6,7.8H218.3L232.6,97.8c.9-7.9,2.9-8.2,7.9-8.3h33c9.7,0,18.4,5.7,23.1,13.6,5.9,9.9,4.1,24.8-2.2,34.3-3.7,5.6-12.2,12.7-22.8,13.3,9.1,11.4,14.9,36.1,24.7,49.7,11.4,16,29.4,25.5,69.9,20ZM212.7,196.1H163.8c-2.2.2-3.8-1.8-3.4-4.6l4.4-34.1c.2-2,2.1-2.9,3.9-2.9h21.5c5.5,0,5.6-5.7,6.3-10.7H166.4l5.4-41.5h45.8c3.7,0,4.2-1.7,4.6-4.2l1.1-8.6-62.7.2c-3.4-.2-7.1,1.5-7.5,6.3L138.8,209.2h67c3.5.2,5.6-1.7,5.8-4.6l1.1-8.6Zm-72.8-60.5a88.8,88.8,0,0,1-6,22.9,77.6,77.6,0,0,1-12,19.9A75,75,0,0,1,104.4,194c-9.5,6.2-26.3,13.2-38,14.2-24.2,1.8-40,.3-66.4.9l16.9-134C19,61.9,24.6,63.4,37,63.1c15.6.4,31.2-.4,46.7,1.5a94.9,94.9,0,0,1,15,3A59.9,59.9,0,0,1,119,77.4a53.7,53.7,0,0,1,13.6,15.4,56.3,56.3,0,0,1,7,19.8,80.1,80.1,0,0,1,.3,23ZM77.4,187.1c30.6-14.5,48.1-52.3,35.1-84-3-7.4-6.6-12.2-11.7-15.4-11.9-7.6-28.1-9.6-42.4-9.3l-18.2.4L27,185.8c-.9,6.3,1.8,7.8,4.7,7.7h6.5C55.4,193.5,61.4,194.7,77.4,187.1Z"/>
        <path class="cls-3" d="M474.3,78.9c-.5,0-1-.1-1.1.4s.3.5,1.4.5c5.8.3,5.4,6.1,5,8.5l-11.1,87.1,12.6-87C482,82.3,481.2,78.7,474.3,78.9Z"/>
        <path class="cls-3" d="M459.4,36.8c22,22.6,18.8,22,47.7,9.4-22.6,22-22,18.8-9.3,47.7-22-22.6-18.9-21.9-47.8-9.3C472.6,62.6,472,65.8,459.4,36.8Z"/>
        <g>
          <path class="cls-4" d="M76.6,254.4a20.7,20.7,0,0,1-1.1,6,11.6,11.6,0,0,1-2.6,4,9.6,9.6,0,0,1-3.9,2.3,17.1,17.1,0,0,1-5.4.8H58.1a1.3,1.3,0,0,1-1-.4,1.7,1.7,0,0,1-.3-1.2l1.1-22.2c.1-.5.2-1,.5-1.2a1.3,1.3,0,0,1,1-.4h5.9a13.2,13.2,0,0,1,5.2.8,8,8,0,0,1,3.5,2.3,8.2,8.2,0,0,1,2.1,3.9A17.4,17.4,0,0,1,76.6,254.4Zm-4.9.2a12.5,12.5,0,0,0-.2-3.4,8.1,8.1,0,0,0-1.1-2.7,5.1,5.1,0,0,0-2.1-1.7,6.6,6.6,0,0,0-3.4-.7H62.5l-.9,17.3h2.5a7.9,7.9,0,0,0,3.2-.6,5.3,5.3,0,0,0,2.3-1.6,8.4,8.4,0,0,0,1.5-2.8A20.2,20.2,0,0,0,71.7,254.6Z"/>
          <path class="cls-4" d="M100.2,265.4c0,.3-.1.7-.1.9s-.1.5-.2.6a.5.5,0,0,1-.2.4H87.8a1.2,1.2,0,0,1-1-.4q-.5-.3-.3-1.2l1.1-22.2a1.7,1.7,0,0,1,.5-1.2,1.2,1.2,0,0,1,1-.4h11.8c.1,0,.1.2.2.3s.1.4.1.7v.9c0,.4-.1.7-.1,1a1.4,1.4,0,0,1-.2.6l-.2.3H92.1l-.3,6.2h7.3a.5.5,0,0,1,.2.4c.1.1.1.3.1.6v.9a3.1,3.1,0,0,1-.1,1c0,.2-.1.4-.1.6l-.3.3H91.6l-.3,7.2h8.3l.3.2c.1,0,.1.1.2.3s.1.4.1.6Z"/>
          <path class="cls-4" d="M128,266.6c0,.2,0,.3-.1.4s-.2.2-.3.3h-4.1l-.4-.3a.6.6,0,0,1-.1-.4l-1.8-5.7c-.2-.6-.5-1.2-.7-1.7a3.5,3.5,0,0,0-.7-1.2,2.5,2.5,0,0,0-1-.8,2.7,2.7,0,0,0-1.3-.2H116l-.4,9.6-.2.4-.4.3h-3.7l-.4-.3c0-.1-.1-.2,0-.3l1.1-23.1a2.2,2.2,0,0,1,.5-1.3,1.8,1.8,0,0,1,1-.4h8.6a6.1,6.1,0,0,1,2.4.7,5.5,5.5,0,0,1,1.9,1.4,5.4,5.4,0,0,1,1,2,5.9,5.9,0,0,1,.3,2.7,8.5,8.5,0,0,1-.4,2.3,5,5,0,0,1-1,1.9l-1.4,1.4a7.5,7.5,0,0,1-2,1l.9.7a3.4,3.4,0,0,1,.8.9,5.4,5.4,0,0,1,.7,1.3,7.7,7.7,0,0,1,.7,1.6l1.6,5a3.6,3.6,0,0,1,.3,1.1A1.1,1.1,0,0,1,128,266.6Zm-5.2-17.2a3.6,3.6,0,0,0-.4-2.1,2.3,2.3,0,0,0-1.6-1.2l-.8-.2h-3.4l-.4,7.2h2.4a4.8,4.8,0,0,0,1.8-.3l1.3-.7a5,5,0,0,0,.8-1.2A3.3,3.3,0,0,0,122.8,249.4Z"/>
          <path class="cls-4" d="M165,266.5a.6.6,0,0,1-.1.4l-.4.2-.7.2h-2.1l-.7-.2a.5.5,0,0,1-.4-.2c0-.1-.1-.3-.1-.4l1.1-20.7h0l-7.8,20.7a.5.5,0,0,1-.2.4l-.5.3h-3.5l-.4-.3a.5.5,0,0,1-.2-.4l-5.4-20.6h0l-1.1,20.7a.4.4,0,0,1-.1.3l-.4.3h-3.5l-.4-.3v-.3l1.2-22.7a2,2,0,0,1,.6-1.5,1.7,1.7,0,0,1,1.3-.5h4.5l1,.5a3.5,3.5,0,0,1,.6.9,10.9,10.9,0,0,1,.5,1.4l4.2,15.1h.1l5.9-15.1a9.8,9.8,0,0,1,.6-1.4,2.2,2.2,0,0,1,.7-.9,1.3,1.3,0,0,1,.9-.5l1.1-.2h4c.3.1.4.3.6.4l.3.7c0,.2.1.5.1.9Z"/>
          <path class="cls-4" d="M195.6,265.2a2.6,2.6,0,0,1,.2,1.1.6.6,0,0,1-.1.6.9.9,0,0,1-.7.3h-3.6l-.4-.2a4.3,4.3,0,0,1-.1-.5l-1.3-5.1h-8.7l-1.7,4.9a1.7,1.7,0,0,0-.2.5l-.4.3-.8.2h-2.5l-.6-.2a.8.8,0,0,1-.1-.7,3,3,0,0,1,.3-1.1l8.3-22.5.3-.6.4-.3h5l.5.3a1.1,1.1,0,0,1,.2.6ZM186,246.6h0l-3.9,10.8h6.6Z"/>
          <path class="cls-4" d="M219.1,243.8c0,.4-.1.7-.1.9a6.4,6.4,0,0,1-.2.7l-.2.4h-6.1l-1.1,20.5a.4.4,0,0,1-.1.3l-.4.3h-3.7l-.4-.3a.4.4,0,0,1-.1-.3l1.1-20.5h-6.1a.5.5,0,0,1-.2-.4c-.1-.1-.1-.3-.1-.6v-1a3.1,3.1,0,0,1,.1-1,3.5,3.5,0,0,1,.1-.6l.3-.4h16.9c.1,0,.1.2.2.3s.1.4.1.7Z"/>
          <path class="cls-4" d="M247.7,254a18.7,18.7,0,0,1-1,5.6,13.7,13.7,0,0,1-2.4,4.3,10.4,10.4,0,0,1-3.6,2.6,12.1,12.1,0,0,1-4.8,1,13.2,13.2,0,0,1-4.7-.8,7,7,0,0,1-3.2-2.4,8.2,8.2,0,0,1-1.8-4,20.9,20.9,0,0,1-.4-5.8,19.2,19.2,0,0,1,1-5.6,12.2,12.2,0,0,1,2.3-4.2,10.4,10.4,0,0,1,3.6-2.6,15.3,15.3,0,0,1,4.9-1,12.6,12.6,0,0,1,4.6.8,8.6,8.6,0,0,1,3.3,2.3,11.1,11.1,0,0,1,1.8,4.1A20.1,20.1,0,0,1,247.7,254Zm-5,.3a14.8,14.8,0,0,0-.1-3.7,7.7,7.7,0,0,0-.8-2.8,4.2,4.2,0,0,0-1.7-1.8,6.1,6.1,0,0,0-2.8-.6,5.6,5.6,0,0,0-3,.7,7.2,7.2,0,0,0-2,1.9,8.6,8.6,0,0,0-1.1,2.8,18.6,18.6,0,0,0-.5,3.4c0,1.4,0,2.7.1,3.8a10.3,10.3,0,0,0,.8,2.8,4.5,4.5,0,0,0,1.8,1.8,5.8,5.8,0,0,0,2.8.6,5.2,5.2,0,0,0,2.9-.7,6.1,6.1,0,0,0,2-1.9,12.6,12.6,0,0,0,1.2-2.9A18.6,18.6,0,0,0,242.7,254.3Z"/>
          <path class="cls-4" d="M270.4,264.8c0,.3-.1.7-.1.9a6.4,6.4,0,0,1-.2.7.5.5,0,0,1-.2.4H259a1.5,1.5,0,0,1-1-.3,1.4,1.4,0,0,1-.3-1.3l1.1-23.1.2-.3.4-.3h3.7l.4.3c0,.1.1.2,0,.3l-1,20.5h7.6c.1,0,.1.2.2.3s.1.4.1.7Z"/>
          <path class="cls-4" d="M300.5,253.8a24.1,24.1,0,0,1-1,5.7,12.2,12.2,0,0,1-2.4,4.2,9.5,9.5,0,0,1-3.6,2.7,12.6,12.6,0,0,1-4.9.9,13.7,13.7,0,0,1-4.7-.7,8.5,8.5,0,0,1-3.2-2.4,11.3,11.3,0,0,1-1.8-4,26.5,26.5,0,0,1-.4-5.9,22.4,22.4,0,0,1,1-5.5,14.4,14.4,0,0,1,2.4-4.2,10.7,10.7,0,0,1,3.6-2.7,12.6,12.6,0,0,1,4.9-.9,11.1,11.1,0,0,1,4.6.8,6.8,6.8,0,0,1,3.2,2.3,9.9,9.9,0,0,1,1.9,4A24.6,24.6,0,0,1,300.5,253.8Zm-5,.3a21,21,0,0,0-.1-3.6,7.7,7.7,0,0,0-.8-2.8,3.9,3.9,0,0,0-1.8-1.8,4.7,4.7,0,0,0-2.8-.7,5.5,5.5,0,0,0-2.9.8,5.2,5.2,0,0,0-2,1.9,7.8,7.8,0,0,0-1.1,2.8,12.7,12.7,0,0,0-.5,3.4,14.8,14.8,0,0,0,.1,3.7,7.1,7.1,0,0,0,.8,2.8,4.2,4.2,0,0,0,1.7,1.8,5.2,5.2,0,0,0,2.9.7,6.6,6.6,0,0,0,2.9-.8,5.2,5.2,0,0,0,2-1.9,8.6,8.6,0,0,0,1.1-2.8A13.4,13.4,0,0,0,295.5,254.1Z"/>
          <path class="cls-4" d="M330,245.3c0,.4-.1.7-.1,1s-.1.5-.2.6a.5.5,0,0,1-.2.4h-.3a1.3,1.3,0,0,1-.7-.4l-1.3-.7-2-.8a8,8,0,0,0-2.8-.3,8.1,8.1,0,0,0-3.1.6,6.9,6.9,0,0,0-2.4,1.8,8.5,8.5,0,0,0-1.6,2.8,13.5,13.5,0,0,0-.7,3.6,11.9,11.9,0,0,0,.3,3.9,8.2,8.2,0,0,0,1.4,2.8,5,5,0,0,0,2.2,1.6,6.5,6.5,0,0,0,2.9.6l1.5-.2a4.7,4.7,0,0,0,1.5-.6l.3-5.9h-4.4a.5.5,0,0,1-.5-.4,5.8,5.8,0,0,1-.1-1.5c0-.4.1-.7.1-.9s.1-.5.2-.6l.2-.4h8.6l.4.3a1.1,1.1,0,0,1,.2.6,1.3,1.3,0,0,1,.1.6l-.5,10.2a2.9,2.9,0,0,1-.3,1c-.1.3-.4.5-.8.7l-1.4.5-1.8.5-1.9.3h-1.9a12.2,12.2,0,0,1-4.9-.9,8.4,8.4,0,0,1-3.6-2.5,9,9,0,0,1-2.1-4,15.5,15.5,0,0,1-.5-5.4,15.9,15.9,0,0,1,1.1-5.6,14.1,14.1,0,0,1,2.6-4.3,13.1,13.1,0,0,1,4-2.6,11.8,11.8,0,0,1,5-1l2.7.2,2.1.6a5.2,5.2,0,0,1,1.5.7,1.8,1.8,0,0,1,.8.6,1.1,1.1,0,0,1,.3.8A5.8,5.8,0,0,1,330,245.3Z"/>
          <path class="cls-4" d="M345,266c0,.1-.1.2-.1.4l-.4.2-.8.2h-2.2l-.8-.2-.3-.2a.6.6,0,0,1-.1-.4l1.2-24c0-.1.1-.2.1-.3l.4-.3.8-.2h2.3l.7.2.3.2a.8.8,0,0,1,.1.4Zm.4-31.6.4-.4.6-.3h3.1a.9.9,0,0,1,.6.4c.2.1.2.2.1.4l-.4.5-4.1,3.9-.4.3-.5.2-.6.2h-2.4c-.1-.1-.2-.2-.1-.4l.2-.4Z"/>
          <path class="cls-4" d="M375.6,264.7a2.6,2.6,0,0,1,.2,1.1.6.6,0,0,1-.1.6.9.9,0,0,1-.7.3h-3.6l-.4-.2a4.3,4.3,0,0,1-.1-.5l-1.3-5.1h-8.7l-1.7,4.9a1.7,1.7,0,0,0-.2.5l-.4.3h-3.3l-.6-.2a.8.8,0,0,1-.1-.7,3,3,0,0,1,.3-1.1l8.3-22.5a1.6,1.6,0,0,1,.3-.6l.4-.3H368l.9.2.5.3a.8.8,0,0,1,.2.6ZM366,246.1h0l-3.9,10.8h6.6Z"/>
          <path class="cls-4" d="M413,264.4a2.5,2.5,0,0,1-.1.9c0,.3-.1.5-.1.7l-.3.4H401.6a1.7,1.7,0,0,1-1-.3,2.3,2.3,0,0,1-.3-1.3l1.2-23.1a.4.4,0,0,1,.1-.3l.4-.3h3.7l.4.3a.4.4,0,0,1,.1.3l-1,20.5h7.5c.1,0,.2.2.2.3a1.5,1.5,0,0,1,.1.7A1.7,1.7,0,0,1,413,264.4Z"/>
          <path class="cls-4" d="M441.3,264.5a2.8,2.8,0,0,1,.2,1.1.6.6,0,0,1-.1.6.9.9,0,0,1-.7.3h-3.6a.5.5,0,0,1-.4-.2v-.4l-1.3-5.1h-8.7l-1.7,5a.8.8,0,0,0-.2.4l-.4.3-.8.2H421l-.6-.2a.8.8,0,0,1-.1-.7,3.6,3.6,0,0,1,.3-1.1l8.3-22.5.3-.6.4-.3h5l.5.3a1.4,1.4,0,0,1,.2.6Zm-9.6-18.6h-.1l-3.8,10.8h6.6Zm1.8-11.7.5-.5.5-.3h3.2l.6.3a.3.3,0,0,1,0,.4c0,.2-.1.3-.3.5l-4.2,4-.4.3-.4.2h-2.6l-.5-.2a.4.4,0,0,1-.1-.3.9.9,0,0,1,.3-.5Z"/>
          <path class="cls-4" d="M465.2,258.8a9.5,9.5,0,0,1-.9,3.5,8.2,8.2,0,0,1-2,2.5,6.9,6.9,0,0,1-2.8,1.5,8.8,8.8,0,0,1-3.3.5,7.5,7.5,0,0,1-2.2-.2l-1.8-.5-1.3-.6a2.2,2.2,0,0,1-.7-.6.9.9,0,0,1-.3-.7,5.7,5.7,0,0,1-.1-1.4,4.1,4.1,0,0,0,.1-1,6.4,6.4,0,0,1,.2-.7c.1-.2.1-.3.2-.4h.3l.7.3a6.2,6.2,0,0,0,1.2.8l1.6.7a8,8,0,0,0,2.3.3l1.6-.2a4.1,4.1,0,0,0,1.1-.7,2.5,2.5,0,0,0,.8-1,3.2,3.2,0,0,0,.3-1.4,2.1,2.1,0,0,0-.3-1.5,3.6,3.6,0,0,0-1.1-1,3.8,3.8,0,0,0-1.5-.9l-1.7-.9a10.8,10.8,0,0,1-1.8-1.1,6.7,6.7,0,0,1-1.5-1.4,6.3,6.3,0,0,1-1-2,5.9,5.9,0,0,1-.3-2.7,7.9,7.9,0,0,1,.8-3.2,5.2,5.2,0,0,1,1.8-2.3,5.6,5.6,0,0,1,2.5-1.4,10.5,10.5,0,0,1,3-.5l1.7.2,1.5.3,1.2.6a1.4,1.4,0,0,1,.7.4l.3.4a.4.4,0,0,0,.1.3v1.5a3.1,3.1,0,0,0-.1.9c0,.3-.1.5-.1.7l-.2.3a.5.5,0,0,1-.4.2l-.6-.3-1-.6-1.4-.6a5,5,0,0,0-1.8-.2,2.5,2.5,0,0,0-1.3.2,2.3,2.3,0,0,0-1,.5l-.7.9a4.3,4.3,0,0,0-.2,1.1,2.6,2.6,0,0,0,.4,1.5,3.2,3.2,0,0,0,1,1,5.1,5.1,0,0,0,1.6.9l1.8.9,1.7,1.1a6.7,6.7,0,0,1,1.5,1.4,6.4,6.4,0,0,1,1.1,2A10.1,10.1,0,0,1,465.2,258.8Z"/>
          <path class="cls-4" d="M488.8,264.3a3.4,3.4,0,0,0-.1.9,6.4,6.4,0,0,1-.2.7l-.2.3h-12a1.2,1.2,0,0,1-.9-.3,1.7,1.7,0,0,1-.4-1.3l1.2-22.1a1.7,1.7,0,0,1,.4-1.3,1.8,1.8,0,0,1,1-.4h11.9l.2.3a2,2,0,0,0,.1.7v.9a3.8,3.8,0,0,0-.1,1c-.1.2-.1.4-.2.6s-.1.3-.2.3h-8.6l-.3,6.2h7l.3.2c.1,0,.1.1.2.3a3.5,3.5,0,0,1,.1.6v.9c0,.4-.1.7-.1,1a1.4,1.4,0,0,1-.2.6c0,.1-.1.2-.2.3h-7.3l-.4,7.2h8.7l.2.3a1.3,1.3,0,0,0,.1.6Z"/>
          <path class="cls-4" d="M516.6,265.6v.3l-.4.3H512l-.3-.3c-.1-.1-.1-.3-.2-.4l-1.8-5.7-.6-1.7a6.3,6.3,0,0,0-.7-1.2,2.5,2.5,0,0,0-1-.8,2.7,2.7,0,0,0-1.3-.2h-1.5l-.5,9.7a.4.4,0,0,1-.1.3l-.4.3h-3.7l-.4-.3a.4.4,0,0,1-.1-.3l1.2-23.1a1.7,1.7,0,0,1,.5-1.3,1.7,1.7,0,0,1,1-.3h8.5a8.2,8.2,0,0,1,2.5.7,6.2,6.2,0,0,1,1.8,1.4,4.9,4.9,0,0,1,1.1,2,7.7,7.7,0,0,1,.3,2.7,15.7,15.7,0,0,1-.4,2.3,11.4,11.4,0,0,1-1,1.9,6.7,6.7,0,0,1-1.5,1.4,6.9,6.9,0,0,1-1.9,1l.9.7a3.4,3.4,0,0,1,.8.9,5.4,5.4,0,0,1,.7,1.3l.6,1.6,1.7,5a3.6,3.6,0,0,1,.3,1.1A1.3,1.3,0,0,1,516.6,265.6Zm-5.2-17.3a4.6,4.6,0,0,0-.4-2.1,2.5,2.5,0,0,0-1.6-1.2l-.8-.2h-3.4l-.4,7.2h2.4a4.8,4.8,0,0,0,1.8-.3l1.3-.7a3.6,3.6,0,0,0,.8-1.2A3.3,3.3,0,0,0,511.4,248.3Z"/>
        </g>
      </g>
    </g>
  </g>
</svg>
