<svg width="128" height="128" viewBox="0 0 128 128" fill="none" xmlns="http://www.w3.org/2000/svg">
<path fill-rule="evenodd" clip-rule="evenodd" d="M115.769 109.196C119.727 112.872 113.131 119.223 110.163 116.215L56.0795 60.3952C51.7924 55.7157 58.0582 47.3594 62.6751 51.7047C82.132 72.7624 96.3125 88.4722 115.769 109.196Z" fill="url(#paint0_linear_301_54)"/>
<path fill-rule="evenodd" clip-rule="evenodd" d="M27.6274 43.4719C49.8893 41.4647 48.5602 43.1374 54.2087 21.3922C56.2023 43.8065 54.8733 42.1338 76.4706 47.821C53.8765 49.8282 55.5378 48.4901 49.8893 70.2353C47.8957 47.821 49.557 49.4937 27.6274 43.4719Z" fill="#F1B527"/>
<path fill-rule="evenodd" clip-rule="evenodd" d="M11 39.0093C18.7337 39.0093 17.9603 39.6526 21.4405 33.8627C20.6671 39.9743 20.6671 39.331 27.6275 42.2259C19.1204 42.2259 20.6671 41.5826 17.187 47.3725C17.9603 41.261 18.347 41.9043 11 39.0093Z" fill="#F1B527"/>
<path fill-rule="evenodd" clip-rule="evenodd" d="M44.2549 21.2595C36.1181 20.5519 37.1794 20.5519 33.9954 27.6275C34.703 19.8444 34.703 20.5519 27.6274 17.368C36.1181 18.0755 34.703 18.0755 37.8869 11C37.1794 18.7831 36.4718 18.0755 44.2549 21.2595Z" fill="#F1B527"/>
<path fill-rule="evenodd" clip-rule="evenodd" d="M71.2745 21.6072C80.3104 22.2881 79.6411 22.9689 83.3224 14.1177C82.6531 23.3094 82.6531 22.6285 91.0196 26.3733C81.9837 25.6924 82.6531 25.6924 78.9718 33.8628C78.9718 24.3307 79.6411 25.0115 71.2745 21.6072Z" fill="#F1B527"/>
<path fill-rule="evenodd" clip-rule="evenodd" d="M21.3922 76.3107C31.5925 81.0911 30.889 79.6202 30.1856 91.0196C34.7581 80.3557 33.3512 81.0911 44.255 81.8266C34.0547 77.0462 34.7581 78.5171 35.4616 67.1177C31.5925 77.0462 32.296 77.0462 21.3922 76.3107Z" fill="#F1B527"/>
<defs>
<linearGradient id="paint0_linear_301_54" x1="61.6102" y1="57.6924" x2="93.5163" y2="92.53" gradientUnits="userSpaceOnUse">
<stop offset="0.2081" stop-color="#B22281"/>
<stop offset="0.5826" stop-color="#6A3180"/>
<stop offset="1" stop-color="#084580"/>
</linearGradient>
</defs>
</svg>
